<?xml version="1.0" encoding="UTF-8"?>
<svg id="Layer_2" data-name="Layer 2" xmlns="http://www.w3.org/2000/svg" viewBox="0 0 239.94 189.56">
  <defs>
    <style>
      .cls-1 {
        fill: #fff;
        stroke: #231f20;
        stroke-miterlimit: 10;
        stroke-width: .25px;
      }

      .cls-2 {
        fill: #1da780;
      }
    </style>
  </defs>
  <g id="Layer_1-2" data-name="Layer 1">
    <g>
      <circle class="cls-2" cx="167.36" cy="72.58" r="72.58"/>
      <path class="cls-1" d="M7,131.99s-14.29-13.73-1.67-23.75c0,0-4.08-9.46,4.08-17.81,0,0,47.88,24.68,72.74,6.12l-19.48-10.39s-22.82-15.4-34.33-48.99l-5.57-22.45s-4.82-6.68,.93-5.57,16.7,5.57,29.32,7.79,44.91,3.71,53.81,13.92c0,0,5.01,2.1,10.45,13.61s19.79,14.1,19.79,14.1c0,0,10.27,2.85,18.93-8.78s16.08-18.8,18.68-19.55,12.12-6.43,22.89,2.97c0,0,5.32,7.67,9.03,9.28s8.29,4.82,8.29,4.82c0,0,3.96,2.97-.74,3.46s-12.12,.49-12.12,.49c0,0-14.47,2.35-15.09,12.62,0,0-1.48,3.22-6.06,31.55s-21.15,41.57-35.01,46.64c0,0-12.49,7.92-43.3,1.42,0,0-25.61-9.46-33.03,10.21-7.42,19.67-11.69,29.51-11.69,29.51l-2.04,4.08s-1.48,4.82-12.25,0c0,0-8.35-2.25-12.8-13.47,0,0-19.11-1.75-16.14-17.9,0,0-17.81-8.72-7.61-23.94Z"/>
      <circle class="cls-2" cx="190.99" cy="37.76" r="2.84"/>
      <path class="cls-2" d="M95.45,73.16s17.44-11.88,43.7,0c0,0,19.76,8.72,19.3,28.76,0,0-1.48,16.79-23.85,15.87,0,0-12.25-.19-24.68-10.3,0,0-9-5.85-12.8-21.06,0,0-1.95-5.1-1.67-13.27Z"/>
    </g>
  </g>
</svg>