<?xml version="1.0" encoding="UTF-8"?>
<svg id="Layer_2" data-name="Layer 2" xmlns="http://www.w3.org/2000/svg" viewBox="0 0 144.51 145.16">
  <defs>
    <style>
      .cls-1 {
        fill: #1da780;
      }
    </style>
  </defs>
  <g id="Layer_1-2" data-name="Layer 1">
    <g>
      <path class="cls-1" d="M71.93,0C47.17,0,25.32,12.4,12.22,31.33c1.63,1.09,5.51,4.4,9.64,13.14,5.44,11.51,19.79,14.1,19.79,14.1,0,0,10.27,2.85,18.93-8.78,8.66-11.63,16.08-18.8,18.68-19.55,2.6-.74,12.12-6.43,22.89,2.97,0,0,5.32,7.67,9.03,9.28,3.71,1.61,8.29,4.82,8.29,4.82,0,0,3.96,2.97-.74,3.46-4.7,.49-12.12,.49-12.12,.49,0,0-14.47,2.35-15.09,12.62,0,0-1.48,3.22-6.06,31.55-4.55,28.18-20.98,41.43-34.79,46.56,6.73,2.06,13.87,3.18,21.27,3.18,40.09,0,72.58-32.5,72.58-72.58S112.02,0,71.93,0Z"/>
      <circle class="cls-1" cx="95.56" cy="37.76" r="2.84"/>
      <path class="cls-1" d="M.03,73.16s17.44-11.88,43.7,0c0,0,19.76,8.72,19.3,28.76,0,0-1.48,16.79-23.85,15.87,0,0-12.25-.19-24.68-10.3,0,0-9-5.85-12.8-21.06,0,0-1.95-5.1-1.67-13.27Z"/>
    </g>
  </g>
</svg>